# Blender v2.72 (sub 0) OBJ File: 'engine.blend'
# www.blender.org
mtllib engine3.mtl
o Circle
v 0.070522 -0.184845 -1.122261
v 1.064224 0.838223 0.888305
v 0.070522 1.815155 -1.122261
v 0.265613 -0.184845 -1.103046
v 0.265613 1.815155 -1.103046
v 0.453206 -0.184845 -1.046141
v 0.453206 1.815155 -1.046141
v 0.626093 -0.184845 -0.953731
v 0.626093 1.815155 -0.953731
v 0.777629 -0.184845 -0.829368
v 0.777629 1.815155 -0.829368
v 0.901992 -0.184845 -0.677831
v 0.901992 1.815155 -0.677831
v 0.994402 -0.184845 -0.504944
v 0.994402 1.815155 -0.504944
v 1.051308 -0.184845 -0.317351
v 1.051308 1.815155 -0.317351
v 1.070522 -0.184845 -0.122261
v 1.070522 1.815155 -0.122261
v 1.051308 -0.184845 0.072829
v 1.051308 1.815155 0.072829
v 0.994402 -0.184845 0.260422
v 0.994402 1.815155 0.260422
v 0.901992 -0.184845 0.433309
v 0.901992 1.815155 0.433309
v 0.777629 -0.184845 0.584846
v 0.777629 1.815155 0.584846
v 0.626092 -0.184845 0.709209
v 0.626092 1.815155 0.709209
v 0.453206 -0.184845 0.801619
v 0.453206 1.815155 0.801619
v 0.265612 -0.184845 0.858524
v 0.265612 1.815155 0.858524
v 0.070522 -0.184845 0.877739
v 0.070522 1.815155 0.877739
v -0.124568 -0.184845 0.858524
v -0.124568 1.815155 0.858524
v -0.312162 -0.184845 0.801618
v -0.312162 1.815155 0.801618
v -0.485048 -0.184845 0.709208
v -0.485048 1.815155 0.709208
v -0.636585 -0.184845 0.584845
v -0.636585 1.815155 0.584845
v -0.760948 -0.184845 0.433309
v -0.760948 1.815155 0.433309
v -0.853358 -0.184845 0.260422
v -0.853358 1.815155 0.260422
v -0.910263 -0.184845 0.072828
v -0.910263 1.815155 0.072828
v -0.929478 -0.184845 -0.122262
v -0.929478 1.815155 -0.122262
v -0.910263 -0.184845 -0.317352
v -0.910263 1.815155 -0.317352
v -0.853357 -0.184845 -0.504946
v -0.853357 1.815155 -0.504946
v -0.760947 -0.184845 -0.677832
v -0.760947 1.815155 -0.677832
v -0.636584 -0.184845 -0.829369
v -0.636584 1.815155 -0.829369
v -0.485047 -0.184845 -0.953731
v -0.485047 1.815155 -0.953731
v -0.312160 -0.184845 -1.046141
v -0.312160 1.815155 -1.046141
v -0.124567 -0.184845 -1.103047
v -0.124567 1.815155 -1.103047
v 0.070522 1.815155 -1.122261
v 0.265613 1.815155 -1.103046
v 0.453206 1.815155 -1.046141
v 0.626093 1.815155 -0.953731
v 0.777629 1.815155 -0.829368
v 0.901992 1.815155 -0.677831
v 0.994402 1.815155 -0.504944
v 1.051308 1.815155 -0.317351
v 1.070522 1.815155 -0.122261
v 1.051308 1.815155 0.072829
v 0.994402 1.815155 0.260422
v 0.901992 1.815155 0.433309
v 0.777629 1.815155 0.584846
v 0.626093 1.815155 0.709209
v 0.453206 1.815155 0.801619
v 0.265612 1.815155 0.858524
v 0.070522 1.815155 0.877739
v -0.124568 1.815155 0.858524
v -0.312161 1.815155 0.801618
v -0.485048 1.815155 0.709208
v -0.636585 1.815155 0.584845
v -0.760948 1.815155 0.433309
v -0.853357 1.815155 0.260422
v -0.910263 1.815155 0.072828
v -0.929478 1.815155 -0.122262
v -0.910263 1.815155 -0.317352
v -0.853357 1.815155 -0.504946
v -0.760947 1.815155 -0.677832
v -0.636583 1.815155 -0.829369
v -0.485047 1.815155 -0.953731
v -0.312160 1.815155 -1.046141
v -0.124566 1.815155 -1.103047
v 0.453206 -0.184845 0.801619
v 0.265612 -0.184845 0.858524
v 0.070522 -0.184845 0.877739
v -0.124568 -0.184845 0.858524
v -0.312162 -0.184845 0.801618
v 0.453206 1.815155 0.801619
v 0.265612 1.815155 0.858524
v 0.070522 1.815155 0.877739
v -0.124568 1.815155 0.858524
v -0.312161 1.815155 0.801618
v 0.453205 -0.184845 2.801619
v 0.265612 -0.184845 2.858524
v 0.070521 -0.184845 2.877739
v -0.124569 -0.184845 2.858524
v -0.312162 -0.184845 2.801618
v 0.453205 1.815155 2.801619
v 0.265612 1.815155 2.858524
v 0.070521 1.815155 2.877739
v -0.124569 1.815155 2.858524
v -0.312162 1.815155 2.801618
v -0.853358 -0.184845 0.260422
v -0.910263 -0.184845 0.072828
v -0.910263 1.815155 0.072828
v -0.853357 1.815155 0.260422
v -0.910263 -0.184845 -0.317352
v -0.853357 -0.184845 -0.504946
v -0.853357 1.815155 -0.504946
v -0.910263 1.815155 -0.317352
v -0.910263 -0.184845 0.072828
v -0.929478 -0.184845 -0.122262
v -0.929478 1.815155 -0.122262
v -0.910263 1.815155 0.072828
v -0.929478 -0.184845 -0.122262
v -0.910263 -0.184845 -0.317352
v -0.910263 1.815155 -0.317352
v -0.929478 1.815155 -0.122262
v -0.853358 -0.184845 0.260422
v -0.910263 -0.184845 0.072828
v -0.910263 1.815155 0.072828
v -0.853357 1.815155 0.260422
v -0.910263 -0.184845 -0.317352
v -0.853357 -0.184845 -0.504946
v -0.853357 1.815155 -0.504946
v -0.910263 1.815155 -0.317352
v -0.910263 -0.184845 0.072828
v -0.929478 -0.184845 -0.122262
v -0.929478 1.815155 -0.122262
v -0.910263 1.815155 0.072828
v -0.929478 -0.184845 -0.122262
v -0.910263 -0.184845 -0.317352
v -0.910263 1.815155 -0.317352
v -0.929478 1.815155 -0.122262
v 0.070522 -0.184845 0.877739
v 0.265612 -0.184845 0.858524
v 0.453206 -2.184845 0.801619
v 0.265612 -2.184845 0.858524
v 0.070522 -2.184845 0.877739
v -0.124568 -2.184845 0.858524
v -0.312162 -2.184845 0.801618
v 0.453206 -0.184845 -1.046141
v 0.626093 -0.184845 -0.953731
v 0.777629 -0.184845 -0.829368
v 0.901992 -0.184845 -0.677831
v 0.994402 -0.184845 -0.504944
v 0.994402 -0.184845 0.260422
v 0.901992 -0.184845 0.433309
v 0.777629 -0.184845 0.584846
v 0.626092 -0.184845 0.709209
v 0.453206 -0.184845 0.801619
v -0.312162 -0.184845 0.801618
v -0.485048 -0.184845 0.709208
v -0.636585 -0.184845 0.584845
v 0.915242 -1.184845 -0.299028
v 0.952206 -1.184845 -0.229873
v 0.915242 -1.184845 0.145428
v 0.626092 -0.184845 0.709209
v 0.265612 -0.184845 0.858524
v 0.453206 -0.184845 0.801619
v -0.636585 -0.184845 0.584845
v -0.760948 -0.184845 0.433309
v -0.853358 -0.184845 0.260422
v -0.910263 -0.184845 0.072828
v -0.929478 -0.184845 -0.122262
v -0.910263 -0.184845 -0.317352
v -0.853357 -0.184845 -0.504946
v -0.760947 -0.184845 -0.677832
v -0.636584 -0.184845 -0.829369
v -0.485047 -0.184845 -0.953731
v -0.312160 -0.184845 -1.046141
v 0.070522 -0.184845 0.877739
v -0.124568 -0.184845 0.858524
v -0.312162 -0.184845 0.801618
v -0.853358 -0.184845 0.260422
v -0.910263 -0.184845 0.072828
v -0.910263 -0.184845 -0.317352
v -0.853357 -0.184845 -0.504946
v -0.910263 -0.184845 0.072828
v -0.929478 -0.184845 -0.122262
v -0.929478 -0.184845 -0.122262
v -0.910263 -0.184845 -0.317352
v -0.853358 -0.184845 0.260422
v -0.910263 -0.184845 0.072828
v -0.910263 -0.184845 -0.317352
v -0.853357 -0.184845 -0.504946
v -0.910263 -0.184845 0.072828
v -0.929478 -0.184845 -0.122262
v -0.929478 -0.184845 -0.122262
v -0.910263 -0.184845 -0.317352
v -0.814678 -1.184845 0.008273
v -0.840285 -1.184845 -0.076144
v -0.840285 -1.184845 -0.251725
v -0.814677 -1.184845 -0.336142
v -0.840285 -1.184845 -0.076144
v -0.848932 -1.184845 -0.163934
v -0.848932 -1.184845 -0.163934
v -0.840285 -1.184845 -0.251725
v 0.070522 -1.184845 0.789871
v -0.007514 -1.184845 0.782185
v -0.082551 -1.184845 0.759423
v -0.312162 -0.184845 0.801618
v -0.485048 -0.184845 0.709208
v -0.636585 -0.184845 0.584845
v -0.760948 -0.184845 0.433309
v -0.853358 -0.184845 0.260422
v -0.853357 -0.184845 -0.504946
v -0.760947 -0.184845 -0.677832
v -0.636584 -0.184845 -0.829369
v -0.485047 -0.184845 -0.953731
v -0.312160 -0.184845 -1.046141
v -0.082551 -1.184845 0.759423
v -0.151706 -1.184845 0.722459
v -0.212321 -1.184845 0.672713
v -0.773093 -1.184845 0.086072
v -0.814678 -1.184845 0.008273
v -0.814677 -1.184845 -0.336142
v -0.773093 -1.184845 -0.413941
v -0.717129 -1.184845 -0.482132
v 0.994402 -0.184845 -0.504944
v 1.051308 -0.184845 -0.317351
v 1.070522 -0.184845 -0.122261
v 1.051308 -0.184845 0.072829
v 0.994402 -0.184845 0.260422
v 0.952206 -1.184845 -0.229873
v 0.974968 -1.184845 -0.154836
v 0.982654 -1.184845 -0.076800
v 0.974968 -1.184845 0.001236
v 0.952206 -1.184845 0.076273
v 0.994402 -0.184845 0.260422
v 0.901992 -0.184845 0.433309
v 0.952206 -1.184845 0.076273
v 0.269057 -1.184845 -1.003945
v 0.338212 -1.184845 -0.966981
v 0.398826 -1.184845 -0.917236
v 0.115984 -1.184845 -1.034393
v 0.194020 -1.184845 -1.026707
v 0.269057 -1.184845 -1.003945
v -0.037089 -1.184845 -1.003945
v 0.037948 -1.184845 -1.026707
v -0.106244 -1.184845 -0.966981
v -0.037089 -1.184845 -1.003945
v 0.901992 -0.184845 0.433309
v 0.777629 -0.184845 0.584846
v 0.915242 -1.184845 0.145428
v 0.865497 -1.184845 0.206043
v 0.777629 -0.184845 0.584846
v 0.626092 -0.184845 0.709209
v 0.353365 -1.184845 0.672714
v 0.292750 -1.184845 0.722459
v 0.453206 -0.184845 0.801619
v 0.292750 -1.184845 0.722459
v 0.223595 -1.184845 0.759423
v 0.223595 -1.184845 0.759423
v 0.148558 -1.184845 0.782185
v 0.148558 -1.184845 0.782185
v 0.070522 -1.184845 0.789871
vn 0.098000 0.000000 -0.995200
vn 0.290300 0.000000 -0.956900
vn 0.471400 0.000000 -0.881900
vn 0.634400 0.000000 -0.773000
vn 0.773000 0.000000 -0.634400
vn 0.881900 0.000000 -0.471400
vn 0.956900 0.000000 -0.290300
vn 0.995200 0.000000 -0.098000
vn 0.995200 0.000000 0.098000
vn 0.956900 0.000000 0.290300
vn 0.881900 0.000000 0.471400
vn 0.773000 0.000000 0.634400
vn 0.634400 0.000000 0.773000
vn 0.471400 0.000000 0.881900
vn 0.290300 0.000000 0.956900
vn 0.098000 0.000000 0.995200
vn -0.098000 0.000000 0.995200
vn -0.290300 0.000000 0.956900
vn -0.471400 0.000000 0.881900
vn -0.634400 0.000000 0.773000
vn -0.773000 0.000000 0.634400
vn -0.881900 0.000000 0.471400
vn -0.956900 0.000000 0.290300
vn -0.995200 0.000000 0.098000
vn -0.995200 0.000000 -0.098000
vn -0.956900 0.000000 -0.290300
vn -0.881900 0.000000 -0.471400
vn -0.773000 0.000000 -0.634400
vn -0.634400 0.000000 -0.773000
vn -0.471400 0.000000 -0.881900
vn -0.098000 0.000000 -0.995200
vn -0.290300 0.000000 -0.956900
vn 0.000000 1.000000 -0.000000
vn 0.000000 -1.000000 0.000000
vn 0.000000 0.000000 1.000000
vn -1.000000 0.000000 -0.000000
vn 1.000000 -0.000000 0.000000
vn -0.097600 0.087100 -0.991400
vn -0.466500 0.143900 -0.872700
vn 0.465000 0.164600 0.869900
vn -0.288600 0.106400 -0.951500
vn -0.621900 0.197300 -0.757800
vn -0.869900 0.164600 0.465000
vn -0.992300 -0.075900 -0.097700
vn -0.991700 -0.083900 0.097700
vn -0.953400 -0.085700 -0.289200
vn 0.951200 0.109500 -0.288500
vn -0.097700 0.082700 0.991800
vn -0.289000 0.093400 0.952800
vn 0.288200 0.119400 0.950100
vn 0.097600 0.091500 0.991000
vn 0.288600 0.106400 -0.951500
vn 0.097600 0.087100 -0.991400
vn 0.876300 0.113000 0.468400
vn 0.466500 0.143900 -0.872700
vn -0.625200 0.169900 0.761800
vn 0.763500 0.156100 0.626600
vn 0.871800 0.151200 -0.466000
vn 0.621900 0.197300 -0.757800
vn -0.467800 0.123100 0.875200
vn -0.952800 0.093400 -0.289000
vn -0.991800 0.082700 -0.097700
vn -0.991000 0.091500 0.097600
vn -0.950100 0.119400 0.288200
vn -0.875200 0.123100 -0.467800
vn -0.761800 0.169900 -0.625200
usemtl None
s off
f 3//1 5//1 4//1
f 5//2 7//2 6//2
f 7//3 9//3 8//3
f 9//4 11//4 10//4
f 11//5 13//5 12//5
f 13//6 15//6 14//6
f 15//7 17//7 16//7
f 17//8 19//8 18//8
f 19//9 21//9 20//9
f 21//10 23//10 22//10
f 23//11 25//11 24//11
f 25//12 27//12 26//12
f 27//13 29//13 28//13
f 29//14 31//14 30//14
f 31//15 33//15 32//15
f 33//16 35//16 34//16
f 35//17 37//17 36//17
f 37//18 39//18 38//18
f 39//19 41//19 40//19
f 41//20 43//20 42//20
f 43//21 45//21 44//21
f 45//22 47//22 46//22
f 47//23 49//23 48//23
f 49//24 51//24 50//24
f 51//25 53//25 52//25
f 53//26 55//26 54//26
f 55//27 57//27 56//27
f 57//28 59//28 58//28
f 59//29 61//29 60//29
f 61//30 63//30 62//30
f 65//31 3//31 1//31
f 58//12 94//12 93//12
f 63//32 65//32 64//32
f 5//33 53//33 37//33
f 89//34 90//34 70//34
f 82//35 105//35 106//35
f 14//22 72//22 71//22
f 64//15 97//15 96//15
f 42//4 86//4 85//4
f 20//25 75//25 74//25
f 147//9 148//9 149//9
f 26//28 78//28 77//28
f 142//8 143//8 144//8
f 10//20 70//20 69//20
f 83//35 106//35 107//35
f 60//13 95//13 94//13
f 30//35 98//35 103//35
f 16//23 73//23 72//23
f 1//16 66//16 97//16
f 44//5 87//5 86//5
f 22//26 76//26 75//26
f 139//10 140//10 141//10
f 6//18 68//18 67//18
f 28//29 79//29 78//29
f 56//11 93//11 92//11
f 12//21 71//21 70//21
f 84//35 107//35 102//35
f 62//14 96//14 95//14
f 40//3 85//3 84//3
f 4//17 67//17 66//17
f 18//24 74//24 73//24
f 46//6 88//6 87//6
f 24//27 77//27 76//27
f 135//7 136//7 137//7
f 8//19 69//19 68//19
f 30//30 80//30 79//30
f 106//34 105//34 115//34
f 107//34 106//34 116//34
f 98//36 108//36 113//36
f 107//37 117//37 112//37
f 81//35 104//35 105//35
f 80//35 103//35 104//35
f 38//35 102//35 101//35
f 36//35 101//35 100//35
f 34//35 100//35 99//35
f 32//35 99//35 98//35
f 111//1 116//1 115//1
f 109//32 114//32 113//32
f 112//2 117//2 116//2
f 110//31 115//31 114//31
f 104//34 114//34 115//34
f 103//34 113//34 114//34
f 102//33 112//33 111//33
f 101//33 111//33 110//33
f 99//33 100//33 110//33
f 98//33 99//33 109//33
f 125//35 141//35 140//35
f 120//35 119//35 48//35
f 121//35 120//35 89//35
f 118//35 121//35 88//35
f 120//35 136//35 135//35
f 124//35 123//35 54//35
f 125//35 124//35 92//35
f 122//35 125//35 91//35
f 132//35 148//35 147//35
f 128//35 127//35 50//35
f 129//35 128//35 90//35
f 126//35 129//35 89//35
f 118//35 134//35 137//35
f 132//35 131//35 52//35
f 133//35 132//35 91//35
f 130//35 133//35 90//35
f 126//35 142//35 145//35
f 128//35 144//35 143//35
f 133//35 149//35 148//35
f 121//35 137//35 136//35
f 122//35 138//35 141//35
f 124//35 140//35 139//35
f 129//35 145//35 144//35
f 130//35 146//35 149//35
f 151//38 271//38 272//38
f 12//35 160//35 161//35
f 40//35 168//35 169//35
f 24//35 163//35 164//35
f 8//35 158//35 159//35
f 26//35 164//35 165//35
f 10//35 159//35 160//35
f 38//35 167//35 168//35
f 22//35 162//35 163//35
f 6//35 157//35 158//35
f 28//35 165//35 166//35
f 173//39 267//39 268//39
f 225//40 256//40 257//40
f 175//41 269//41 270//41
f 262//42 264//42 265//42
f 160//43 170//43 171//43
f 178//35 190//35 191//35
f 193//35 192//35 181//35
f 195//35 194//35 179//35
f 197//35 196//35 180//35
f 193//35 201//35 200//35
f 197//35 205//35 204//35
f 198//35 199//35 191//35
f 195//35 203//35 202//35
f 205//44 213//44 212//44
f 202//45 203//45 211//45
f 201//46 209//46 208//46
f 198//47 206//47 207//47
f 4//48 1//48 251//48
f 157//49 4//49 252//49
f 62//50 254//50 255//50
f 64//51 255//51 251//51
f 189//52 188//52 215//52
f 188//53 187//53 214//53
f 183//35 223//35 224//35
f 184//35 224//35 225//35
f 176//35 219//35 220//35
f 182//35 222//35 223//35
f 185//35 225//35 226//35
f 177//35 220//35 221//35
f 223//54 222//54 232//54
f 218//55 217//55 227//55
f 159//56 158//56 249//56
f 224//57 223//57 233//57
f 220//58 230//58 231//58
f 219//59 218//59 228//59
f 158//60 157//60 248//60
f 239//61 238//61 243//61
f 238//62 237//62 242//62
f 236//63 241//63 242//63
f 235//64 240//64 241//64
f 246//65 245//65 247//65
f 259//66 258//66 260//66
f 1//1 3//1 4//1
f 4//2 5//2 6//2
f 6//3 7//3 8//3
f 8//4 9//4 10//4
f 10//5 11//5 12//5
f 12//6 13//6 14//6
f 14//7 15//7 16//7
f 16//8 17//8 18//8
f 18//9 19//9 20//9
f 20//10 21//10 22//10
f 22//11 23//11 24//11
f 24//12 25//12 26//12
f 26//13 27//13 28//13
f 28//14 29//14 30//14
f 30//15 31//15 32//15
f 32//16 33//16 34//16
f 34//17 35//17 36//17
f 36//18 37//18 38//18
f 38//19 39//19 40//19
f 40//20 41//20 42//20
f 42//21 43//21 44//21
f 44//22 45//22 46//22
f 46//23 47//23 48//23
f 48//24 49//24 50//24
f 50//25 51//25 52//25
f 52//26 53//26 54//26
f 54//27 55//27 56//27
f 56//28 57//28 58//28
f 58//29 59//29 60//29
f 60//30 61//30 62//30
f 64//31 65//31 1//31
f 56//12 58//12 93//12
f 62//32 63//32 64//32
f 9//33 7//33 5//33
f 9//33 15//33 11//33
f 39//33 45//33 43//33
f 17//33 23//33 19//33
f 59//33 57//33 55//33
f 25//33 23//33 27//33
f 33//33 31//33 29//33
f 37//33 35//33 33//33
f 39//33 49//33 45//33
f 41//33 39//33 43//33
f 49//33 47//33 45//33
f 53//33 51//33 49//33
f 63//33 59//33 65//33
f 55//33 53//33 5//33
f 59//33 5//33 65//33
f 5//33 3//33 65//33
f 49//33 39//33 53//33
f 5//33 33//33 9//33
f 23//33 21//33 19//33
f 23//33 9//33 29//33
f 39//33 37//33 53//33
f 9//33 17//33 15//33
f 59//33 55//33 5//33
f 63//33 61//33 59//33
f 17//33 9//33 23//33
f 9//33 33//33 29//33
f 96//34 66//34 95//34
f 23//33 29//33 27//33
f 37//33 33//33 5//33
f 96//34 97//34 66//34
f 15//33 13//33 11//33
f 92//34 93//34 94//34
f 90//34 91//34 92//34
f 83//35 82//35 106//35
f 86//34 87//34 88//34
f 86//34 82//34 85//34
f 82//34 83//34 84//34
f 81//34 82//34 70//34
f 78//34 79//34 80//34
f 76//34 77//34 78//34
f 75//34 72//34 73//34
f 74//34 75//34 73//34
f 70//34 71//34 72//34
f 68//34 69//34 70//34
f 68//34 70//34 67//34
f 12//22 14//22 71//22
f 90//34 92//34 94//34
f 70//34 66//34 67//34
f 66//34 94//34 95//34
f 82//34 84//34 85//34
f 72//34 75//34 78//34
f 75//34 76//34 78//34
f 78//34 80//34 81//34
f 66//34 70//34 94//34
f 86//34 89//34 82//34
f 78//34 81//34 72//34
f 72//34 81//34 70//34
f 70//34 90//34 94//34
f 86//34 88//34 89//34
f 82//34 89//34 70//34
f 62//15 64//15 96//15
f 40//4 42//4 85//4
f 18//25 20//25 74//25
f 146//9 147//9 149//9
f 24//28 26//28 77//28
f 145//8 142//8 144//8
f 8//20 10//20 69//20
f 84//35 83//35 107//35
f 58//13 60//13 94//13
f 80//35 30//35 103//35
f 14//23 16//23 72//23
f 64//16 1//16 97//16
f 42//5 44//5 86//5
f 20//26 22//26 75//26
f 138//10 139//10 141//10
f 4//18 6//18 67//18
f 26//29 28//29 78//29
f 54//11 56//11 92//11
f 10//21 12//21 70//21
f 38//35 84//35 102//35
f 60//14 62//14 95//14
f 38//3 40//3 84//3
f 1//17 4//17 66//17
f 16//24 18//24 73//24
f 44//6 46//6 87//6
f 22//27 24//27 76//27
f 134//7 135//7 137//7
f 6//19 8//19 68//19
f 28//30 30//30 79//30
f 116//34 106//34 115//34
f 117//34 107//34 116//34
f 103//36 98//36 113//36
f 102//37 107//37 112//37
f 82//35 81//35 105//35
f 81//35 80//35 104//35
f 36//35 38//35 101//35
f 34//35 36//35 100//35
f 32//35 34//35 99//35
f 30//35 32//35 98//35
f 110//1 111//1 115//1
f 108//32 109//32 113//32
f 111//2 112//2 116//2
f 109//31 110//31 114//31
f 105//34 104//34 115//34
f 104//34 103//34 114//34
f 101//33 102//33 111//33
f 100//33 101//33 110//33
f 109//33 99//33 110//33
f 108//33 98//33 109//33
f 124//35 125//35 140//35
f 89//35 120//35 48//35
f 88//35 121//35 89//35
f 46//35 118//35 88//35
f 119//35 120//35 135//35
f 92//35 124//35 54//35
f 91//35 125//35 92//35
f 52//35 122//35 91//35
f 131//35 132//35 147//35
f 90//35 128//35 50//35
f 89//35 129//35 90//35
f 48//35 126//35 89//35
f 121//35 118//35 137//35
f 91//35 132//35 52//35
f 90//35 133//35 91//35
f 50//35 130//35 90//35
f 129//35 126//35 145//35
f 127//35 128//35 143//35
f 132//35 133//35 148//35
f 120//35 121//35 136//35
f 125//35 122//35 141//35
f 123//35 124//35 139//35
f 128//35 129//35 144//35
f 133//35 130//35 149//35
f 150//38 151//38 272//38
f 14//35 12//35 161//35
f 42//35 40//35 169//35
f 26//35 24//35 164//35
f 10//35 8//35 159//35
f 28//35 26//35 165//35
f 12//35 10//35 160//35
f 40//35 38//35 168//35
f 24//35 22//35 163//35
f 8//35 6//35 158//35
f 30//35 28//35 166//35
f 266//39 173//39 268//39
f 62//40 225//40 257//40
f 174//41 175//41 270//41
f 263//42 262//42 265//42
f 161//43 160//43 171//43
f 179//35 178//35 191//35
f 182//35 193//35 181//35
f 180//35 195//35 179//35
f 181//35 197//35 180//35
f 192//35 193//35 200//35
f 196//35 197//35 204//35
f 190//35 198//35 191//35
f 194//35 195//35 202//35
f 204//44 205//44 212//44
f 210//45 202//45 211//45
f 200//46 201//46 208//46
f 199//47 198//47 207//47
f 252//48 4//48 251//48
f 253//49 157//49 252//49
f 64//50 62//50 255//50
f 1//51 64//51 251//51
f 216//52 189//52 215//52
f 215//53 188//53 214//53
f 184//35 183//35 224//35
f 185//35 184//35 225//35
f 177//35 176//35 220//35
f 183//35 182//35 223//35
f 186//35 185//35 226//35
f 178//35 177//35 221//35
f 233//54 223//54 232//54
f 228//55 218//55 227//55
f 250//56 159//56 249//56
f 234//57 224//57 233//57
f 221//58 220//58 231//58
f 229//59 219//59 228//59
f 249//60 158//60 248//60
f 244//61 239//61 243//61
f 243//62 238//62 242//62
f 237//63 236//63 242//63
f 236//64 235//64 241//64
f 172//65 246//65 247//65
f 261//66 259//66 260//66
